<svg width="169" height="48" viewBox="0 0 169 48" fill="none" xmlns="http://www.w3.org/2000/svg">
<path fill-rule="evenodd" clip-rule="evenodd" d="M37.5806 3.36144C37.7429 3.28321 37.8881 3.25125 38.0164 3.25125C38.142 3.25125 38.4364 3.32526 38.9243 3.61136C39.3864 3.88232 39.9298 4.28817 40.5257 4.80774C41.7153 5.84495 43.0413 7.27146 44.2432 8.79062C45.4467 10.3118 46.4986 11.8916 47.1585 13.2277C47.4896 13.898 47.7057 14.4745 47.8031 14.9314C47.906 15.4142 47.8471 15.6251 47.8167 15.6816C46.7292 17.707 44.7208 19.6466 42.7246 20.8989C41.7294 21.5233 40.781 21.9489 39.9978 22.1384C39.1781 22.3368 38.7278 22.2354 38.5288 22.0942C37.6984 21.505 37.4171 20.911 37.3073 20.2551C37.2475 19.8979 37.237 19.506 37.246 19.0477C37.2491 18.8919 37.2549 18.7172 37.2611 18.5331C37.2716 18.2184 37.2831 17.876 37.2831 17.553C37.2831 17.0694 36.8884 16.6774 36.4016 16.6774C35.9148 16.6774 35.5201 17.0694 35.5201 17.553C35.5201 17.8585 35.5106 18.1334 35.5008 18.418L35.5007 18.4186C35.4942 18.6086 35.4875 18.8029 35.4833 19.0136C35.4737 19.5039 35.4814 20.024 35.5681 20.5424C35.7515 21.6378 36.2776 22.6491 37.5041 23.5193C38.3336 24.1078 39.4258 24.0793 40.4151 23.8399C41.4408 23.5916 42.5676 23.0687 43.666 22.3796C43.8233 22.2809 43.9809 22.1782 44.1384 22.0718C44.2716 23.0087 44.3405 23.9663 44.3405 24.9399C44.3405 36.1237 35.2515 45.1899 24.0397 45.1899C12.8279 45.1899 3.73898 36.1237 3.73898 24.9399C3.73898 23.9575 3.80911 22.9915 3.94465 22.0465C4.11463 22.162 4.28473 22.2731 4.45446 22.3796C5.55285 23.0687 6.67968 23.5916 7.70536 23.8399C8.69462 24.0793 9.78691 24.1078 10.6164 23.5193C11.8428 22.6491 12.3689 21.6378 12.5523 20.5424C12.6391 20.024 12.6467 19.5039 12.6371 19.0136C12.633 18.8027 12.6263 18.6082 12.6197 18.418L12.6197 18.418C12.6099 18.1334 12.6004 17.8585 12.6004 17.553C12.6004 17.0694 12.2057 16.6774 11.7189 16.6774C11.232 16.6774 10.8374 17.0694 10.8374 17.553C10.8374 17.876 10.8488 18.2183 10.8594 18.5331V18.5331V18.5331L10.8594 18.5333C10.8655 18.7173 10.8714 18.8919 10.8745 19.0477C10.8834 19.506 10.873 19.8979 10.8132 20.2551C10.7034 20.911 10.4221 21.505 9.59166 22.0942C9.39271 22.2354 8.94237 22.3368 8.12271 22.1384C7.33946 21.9489 6.39108 21.5233 5.39589 20.8989C3.39969 19.6466 1.39124 17.707 0.303761 15.6816C0.273414 15.6251 0.214508 15.4142 0.31742 14.9314C0.4148 14.4745 0.630868 13.898 0.961957 13.2277C1.62189 11.8916 2.67378 10.3118 3.8773 8.79062C5.07921 7.27146 6.40519 5.84494 7.59477 4.80774C8.19065 4.28817 8.7341 3.88232 9.19616 3.61136C9.68404 3.32526 9.97846 3.25125 10.104 3.25125C10.37 3.25125 10.7083 3.38848 11.1217 3.79037C11.5311 4.18839 11.9314 4.76868 12.3021 5.45359C13.0414 6.81976 13.5704 8.42721 13.8047 9.31155C13.9286 9.77922 14.4107 10.0586 14.8815 9.9355C15.3524 9.81243 15.6336 9.33354 15.5097 8.86587C15.3771 8.36551 15.1593 7.65377 14.8647 6.87122C17.6204 5.47618 20.738 4.68992 24.0397 4.68992C27.3552 4.68992 30.4851 5.48274 33.2492 6.8887C32.958 7.66436 32.7424 8.36924 32.6108 8.86587C32.4869 9.33354 32.7681 9.81243 33.2389 9.9355C33.7097 10.0586 34.1918 9.77922 34.3157 9.31155C34.4211 8.91381 34.5861 8.36978 34.803 7.76723C34.8361 7.7879 34.8691 7.80867 34.9021 7.82952C35.3161 6.42279 36.2434 4.26543 37.5806 3.36144Z" fill="#F357A1"/>
<path fill-rule="evenodd" clip-rule="evenodd" d="M35.0877 32.5746C35.0877 36 30.1505 36 24.0602 36C17.9698 36 13.0326 36 13.0326 32.5746C13.0326 27.0106 17.9698 22.5 24.0602 22.5C30.1505 22.5 35.0877 27.0106 35.0877 32.5746ZM22.602 30.0473C22.602 31.8432 21.4167 33.2991 19.9545 33.2991C18.4923 33.2991 17.307 31.8432 17.307 30.0473C17.307 28.2514 18.4923 26.7955 19.9545 26.7955C21.4167 26.7955 22.602 28.2514 22.602 30.0473ZM27.8924 33.2991C29.3545 33.2991 30.5398 31.8432 30.5398 30.0473C30.5398 28.2514 29.3545 26.7955 27.8924 26.7955C26.4302 26.7955 25.2449 28.2514 25.2449 30.0473C25.2449 31.8432 26.4302 33.2991 27.8924 33.2991Z" fill="white" fill-opacity="0.7"/>
<path d="M71.591 32.232V32.16C70.3639 32.16 69.1368 31.764 69.1368 29.532V17.94H70.9774V16.5H69.1368V12.684H69.0646C67.2601 14.196 64.0842 15.78 60.3308 16.5V17.94H61.2331L61.197 29.208C61.197 33.42 63.5428 34.86 66.0692 34.86C69.3895 34.86 70.9774 33.276 71.591 32.232Z" fill="white"/>
<path d="M88.3456 26.4H88.526L90.4749 16.5C89.2839 16.5 88.4899 16.14 87.1907 16.14C85.2418 16.14 83.4373 17.328 82.5711 20.136V16.14L73.9817 16.86V17.004L74.6674 19.524L74.6313 31.152L73.8012 34.464V34.5H83.4012V34.464L82.5711 31.152V23.988C82.535 20.892 83.9426 18.516 85.2418 18.516L88.3456 26.4Z" fill="white"/>
<path d="M92.1235 16.464V16.5L92.9536 19.848V28.596C92.9536 33.096 94.8302 34.824 97.4287 34.824C100.496 34.824 101.868 33.348 102.481 32.052L103.239 34.464L110.963 34.5V34.464L110.133 31.116V19.848L110.963 16.5V16.464H102.193V29.136C102.157 30.792 101.868 30.936 101.651 30.936C101.363 30.936 100.893 30.792 100.893 27.48V16.464H92.1235Z" fill="white"/>
<path d="M123.304 34.5V34.464L122.474 31.152V17.94H124.351V16.5H122.041C118.685 13.98 117.133 9.948 118.396 9.948C119.659 9.948 121.644 13.836 123.268 15.42L123.34 15.384L123.665 9.3C121.644 9.3 119.984 8.94 118.324 8.94C115.689 8.94 112.983 10.092 112.983 12.684C112.983 14.808 114.426 15.924 116.122 16.5H112.983V17.94H114.534V31.152L113.704 34.464V34.5H123.304Z" fill="white"/>
<path d="M136.52 34.5V34.464L135.689 31.152V17.94H137.566V16.5H135.256C131.9 13.98 130.348 9.948 131.611 9.948C132.874 9.948 134.859 13.836 136.483 15.42L136.556 15.384L136.88 9.3C134.859 9.3 133.199 8.94 131.539 8.94C128.904 8.94 126.198 10.092 126.198 12.684C126.198 14.808 127.641 15.924 129.338 16.5H126.198V17.94H127.75V31.152L126.92 34.464V34.5H136.52Z" fill="white"/>
<path d="M149.193 34.5V34.464L148.363 31.152V8.94L139.774 9.624V9.768L140.46 12.324L140.423 31.152L139.593 34.464V34.5H149.193Z" fill="white"/>
<path d="M160.457 16.14C153.925 16.14 151.543 19.02 151.543 25.572C151.543 32.088 154.142 34.86 161.288 34.86C163.633 34.86 164.861 34.608 167.134 34.608L167.279 27.624H167.134C165.474 30.792 162.587 33.672 161.288 33.672C159.916 33.672 159.519 32.196 159.483 26.004H167.603V24.78C167.603 18.948 166.448 16.14 160.457 16.14ZM159.483 24.42C159.519 18.192 159.808 17.328 160.457 17.328C161.251 17.328 161.107 21.684 161.071 24.42H159.483Z" fill="white"/>
</svg>
