<svg width="16" height="16" viewBox="0 0 16 16" fill="none" xmlns="http://www.w3.org/2000/svg">
<path fill-rule="evenodd" clip-rule="evenodd" d="M6.66671 10L10.1267 8L6.66671 5.99999V10ZM14.3734 4.77999C14.46 5.09333 14.52 5.51333 14.56 6.04666C14.6067 6.58 14.6267 7.03999 14.6267 7.43999L14.6667 8C14.6667 9.46 14.56 10.5333 14.3734 11.22C14.2067 11.82 13.82 12.2067 13.22 12.3733C12.9067 12.46 12.3334 12.52 11.4534 12.56C10.5867 12.6067 9.79337 12.6267 9.06004 12.6267L8.00004 12.6667C5.20671 12.6667 3.46671 12.56 2.78004 12.3733C2.18004 12.2067 1.79337 11.82 1.62671 11.22C1.54004 10.9067 1.48004 10.4867 1.44004 9.95333C1.39337 9.42 1.37337 8.96 1.37337 8.56L1.33337 8C1.33337 6.53999 1.44004 5.46666 1.62671 4.77999C1.79337 4.18 2.18004 3.79333 2.78004 3.62666C3.09337 3.53999 3.66671 3.47999 4.54671 3.43999C5.41337 3.39333 6.20671 3.37333 6.94004 3.37333L8.00004 3.33333C10.7934 3.33333 12.5334 3.43999 13.22 3.62666C13.82 3.79333 14.2067 4.18 14.3734 4.77999Z" fill="white"/>
</svg>
